<?xml version="1.0" encoding="UTF-8" standalone="no"?>
<svg width="308px" height="55px" viewBox="0 0 308 55" version="1.1" xmlns="http://www.w3.org/2000/svg" xmlns:xlink="http://www.w3.org/1999/xlink" xmlns:sketch="http://www.bohemiancoding.com/sketch/ns">
    <!-- Generator: Sketch 3.5.2 (25235) - http://www.bohemiancoding.com/sketch -->
    <title>Layer_1</title>
    <desc>Created with Sketch.</desc>
    <defs></defs>
    <g id="Welcome" stroke="none" stroke-width="1" fill="none" fill-rule="evenodd" sketch:type="MSPage">
        <g id="Snappa" sketch:type="MSArtboardGroup" transform="translate(-719.000000, -207.000000)" fill="#FFFFFF">
            <g id="snappa-logo" sketch:type="MSLayerGroup" transform="translate(719.000000, 207.000000)">
                <g id="Layer_1" sketch:type="MSShapeGroup">
                    <g id="Group" transform="translate(0.000000, 0.360656)">
                        <path d="M29.6979508,10.6032787 L23.8348361,14.0114754 C22.6877049,12.1180328 21.6680328,10.8557377 20.6483607,10.3508197 C19.6286885,9.71967213 18.2266393,9.34098361 16.6971311,9.34098361 C14.6577869,9.34098361 13.0008197,9.84590164 11.7262295,10.9819672 C10.4516393,12.1180328 9.68688525,13.5065574 9.68688525,15.147541 C9.68688525,17.4196721 11.4713115,19.3131148 14.9127049,20.7016393 L19.7561475,22.595082 C23.707377,24.1098361 26.5114754,26.0032787 28.2959016,28.2754098 C30.0803279,30.547541 30.972541,33.3245902 30.972541,36.6065574 C30.972541,41.0245902 29.4430328,44.5590164 26.5114754,47.4622951 C23.579918,50.3655738 19.8836066,51.7540984 15.422541,51.7540984 C11.2163934,51.7540984 7.775,50.4918033 5.09836066,48.0934426 C2.42172131,45.695082 0.764754098,42.1606557 0.127459016,37.742623 L7.52008197,36.1016393 C7.90245902,38.8786885 8.41229508,40.7721311 9.3045082,41.9081967 C10.8340164,43.9278689 13.0008197,44.9377049 15.804918,44.9377049 C18.0991803,44.9377049 19.8836066,44.1803279 21.4131148,42.6655738 C22.942623,41.1508197 23.707377,39.257377 23.707377,36.9852459 C23.707377,36.1016393 23.579918,35.2180328 23.325,34.4606557 C23.070082,33.7032787 22.6877049,32.9459016 22.0504098,32.3147541 C21.5405738,31.6836066 20.7758197,31.052459 19.8836066,30.547541 C18.9913934,30.042623 17.9717213,29.4114754 16.8245902,28.9065574 L12.2360656,27.0131148 C5.60819672,24.2360656 2.42172131,20.1967213 2.42172131,14.895082 C2.42172131,11.3606557 3.82377049,8.33114754 6.50040984,5.93278689 C9.3045082,3.53442623 12.7459016,2.27213115 16.8245902,2.27213115 C22.3053279,2.65081967 26.6389344,5.30163934 29.6979508,10.6032787 L29.6979508,10.6032787 Z" id="Shape"></path>
                        <path d="M52.5131148,51.2491803 L52.5131148,0.378688525 L87.5643443,36.7327869 L87.5643443,3.66065574 L94.8295082,3.66065574 L94.8295082,54.152459 L59.7782787,17.9245902 L59.7782787,51.2491803 L52.5131148,51.2491803 L52.5131148,51.2491803 Z" id="Shape"></path>
                        <path d="M186.6,31.8098361 L186.6,51.1229508 L179.334836,38.5 L179.334836,3.53442623 L187.492213,3.53442623 C191.570902,3.53442623 194.502459,3.78688525 196.669262,4.41803279 C198.708607,4.92295082 200.620492,6.05901639 202.15,7.57377049 C204.954098,10.2245902 206.228689,13.6327869 206.228689,17.6721311 C206.228689,22.0901639 204.69918,25.4983607 201.767623,28.0229508 C198.836066,30.547541 194.884836,31.8098361 189.786475,31.8098361 L186.6,31.8098361 L186.6,31.8098361 Z M186.6,25.2459016 L189.276639,25.2459016 C195.904508,25.2459016 199.218443,22.7213115 199.218443,17.6721311 C199.218443,12.7491803 195.777049,10.3508197 188.894262,10.3508197 L186.472541,10.3508197 L186.472541,25.2459016 L186.6,25.2459016 Z" id="Shape"></path>
                        <path d="M233.759836,31.8098361 L233.759836,51.1229508 L226.494672,38.5 L226.494672,3.53442623 L234.652049,3.53442623 C238.730738,3.53442623 241.662295,3.78688525 243.829098,4.41803279 C245.868443,4.92295082 247.780328,6.05901639 249.309836,7.57377049 C252.113934,10.2245902 253.388525,13.6327869 253.388525,17.6721311 C253.388525,22.0901639 251.859016,25.4983607 248.927459,28.0229508 C245.995902,30.547541 242.044672,31.8098361 236.946311,31.8098361 L233.759836,31.8098361 L233.759836,31.8098361 Z M233.759836,25.2459016 L236.436475,25.2459016 C243.064344,25.2459016 246.378279,22.7213115 246.378279,17.6721311 C246.378279,12.7491803 242.936885,10.3508197 236.054098,10.3508197 L233.632377,10.3508197 L233.632377,25.2459016 L233.759836,25.2459016 Z" id="Shape"></path>
                    </g>
                    <path d="M123.825025,5.22891294 L136.783896,43.6449021 L149.589226,5.22891294 L156.43716,5.22891294 L139.977551,50.3392951 L133.498116,50.3392951 L117.069216,5.22891294 L123.825025,5.22891294 Z" id="V" transform="translate(136.753188, 27.784104) scale(-1, -1) translate(-136.753188, -27.784104) "></path>
                    <path d="M274.863832,4.9695113 L287.822703,43.3855004 L300.628033,4.9695113 L307.475967,4.9695113 L291.016358,50.0798934 L284.536923,50.0798934 L268.108023,4.9695113 L274.863832,4.9695113 Z" id="V" transform="translate(287.791995, 27.524702) scale(-1, -1) translate(-287.791995, -27.524702) "></path>
                </g>
            </g>
        </g>
    </g>
</svg>