<?xml version="1.0" encoding="UTF-8" standalone="no"?>
<svg width="776px" height="233px" viewBox="0 0 776 233" version="1.1" xmlns="http://www.w3.org/2000/svg" xmlns:xlink="http://www.w3.org/1999/xlink" xmlns:sketch="http://www.bohemiancoding.com/sketch/ns">
    <!-- Generator: Sketch 3.5.2 (25235) - http://www.bohemiancoding.com/sketch -->
    <title>Group</title>
    <desc>Created with Sketch.</desc>
    <defs></defs>
    <g id="Welcome" stroke="none" stroke-width="1" fill="none" fill-rule="evenodd" sketch:type="MSPage">
        <g id="Homepage" sketch:type="MSArtboardGroup" transform="translate(-340.000000, -127.000000)">
            <g id="header" sketch:type="MSLayerGroup" transform="translate(300.000000, 127.000000)">
                <g id="Group" transform="translate(40.000000, 0.000000)" sketch:type="MSShapeGroup">
                    <path d="M173.400391,183 L109.15625,183 L42.9277344,55.2558594 L41.8115234,55.2558594 C43.3824948,75.3477567 44.1679688,90.6851684 44.1679688,101.268555 L44.1679688,183 L0.759765625,183 L0.759765625,1.67773438 L64.7558594,1.67773438 L130.736328,127.685547 L131.480469,127.685547 C130.322911,109.412669 129.744141,94.736709 129.744141,83.6572266 L129.744141,1.67773438 L173.400391,1.67773438 L173.400391,183 Z M323.84082,183 L314.911133,149.017578 L256,149.017578 L246.822266,183 L192.996094,183 L252.155273,0.93359375 L317.515625,0.93359375 L377.418945,183 L323.84082,183 Z M304.741211,108.833984 L296.927734,79.0683594 C295.108715,72.453743 292.896986,63.8962114 290.29248,53.3955078 C287.687975,42.8948043 285.972335,35.370791 285.145508,30.8232422 C284.401363,35.0400601 282.933767,41.9853032 280.742676,51.6591797 C278.551584,61.3330562 273.694048,80.3911338 266.169922,108.833984 L304.741211,108.833984 Z M397.014648,1.67773438 L460.266602,1.67773438 C484.906048,1.67773438 503.199322,5.33638919 515.146973,12.6538086 C527.094624,19.971228 533.068359,31.3605998 533.068359,46.8222656 C533.068359,56.9922383 530.463893,65.6737922 525.254883,72.8671875 C520.045872,80.0605828 513.183311,84.6907449 504.666992,86.7578125 L504.666992,87.9980469 C515.91184,90.9746243 524.055964,95.9355121 529.099609,102.880859 C534.143254,109.826207 536.665039,118.838486 536.665039,129.917969 C536.665039,146.371827 530.4846,159.332147 518.123535,168.799316 C505.762471,178.266486 488.916122,183 467.583984,183 L397.014648,183 L397.014648,1.67773438 Z M446.003906,71.2548828 L460.762695,71.2548828 C467.790725,71.2548828 473.227032,69.8079572 477.071777,66.9140625 C480.916523,64.0201678 482.838867,59.7207317 482.838867,54.015625 C482.838867,43.8456523 475.149491,38.7607422 459.770508,38.7607422 L446.003906,38.7607422 L446.003906,71.2548828 Z M446.003906,107.097656 L446.003906,145.172852 L463.243164,145.172852 C478.539465,145.172852 486.1875,138.723697 486.1875,125.825195 C486.1875,119.789358 484.141134,115.159196 480.04834,111.93457 C475.955546,108.709945 470.023151,107.097656 462.250977,107.097656 L446.003906,107.097656 Z M568.166992,183 L568.166992,1.67773438 L617.404297,1.67773438 L617.404297,183 L568.166992,183 Z M656.595703,183 L656.595703,1.67773438 L705.584961,1.67773438 L705.584961,143.436523 L775.410156,143.436523 L775.410156,183 L656.595703,183 Z" id="NABIL" fill="#FFFFFF"></path>
                    <path d="M241.535156,66.09375 L242.238281,66.09375 C247.394557,68.4895953 250.59765,70.8593633 251.847656,73.203125 L255.753906,80.3125 L255.753906,80.703125 C255.753906,81.8489641 253.384138,82.421875 248.644531,82.421875 L247.628906,82.421875 L245.441406,82.109375 C241.326802,82.5781273 233.384173,84.47915 221.613281,87.8125 C205.93612,92.7604414 189.920655,100.468698 173.566406,110.9375 C165.858034,116.145859 158.410192,122.317673 151.222656,129.453125 C145.753879,135.390655 143.019531,139.062493 143.019531,140.46875 L144.816406,140.46875 C145.493493,140.46875 145.832031,140.572916 145.832031,140.78125 L147.628906,140.46875 L151.222656,140.46875 C162.368545,138.958326 167.941406,137.994794 167.941406,137.578125 L167.941406,137.265625 L168.644531,137.265625 L169.347656,137.578125 C169.347656,136.171868 174.321565,135.10417 184.269531,134.375 C184.321615,133.906248 184.555988,133.671875 184.972656,133.671875 C185.233074,133.671875 185.363281,133.802082 185.363281,134.0625 L186.066406,133.671875 C186.535159,133.932293 186.873697,134.0625 187.082031,134.0625 C187.082031,133.697915 187.446611,133.333335 188.175781,132.96875 L189.269531,132.96875 L189.972656,133.359375 C189.972656,132.630205 190.337236,132.265625 191.066406,132.265625 C191.483075,132.473959 191.821613,132.578125 192.082031,132.578125 C192.082031,131.796871 199.08717,130.755215 213.097656,129.453125 C213.097656,129.192707 213.201822,129.0625 213.410156,129.0625 C213.670574,129.0625 213.800781,129.192707 213.800781,129.453125 C216.404961,128.932289 220.441379,128.671875 225.910156,128.671875 L226.222656,128.671875 L228.019531,128.359375 L228.019531,128.671875 C228.279949,128.671875 228.410156,128.567709 228.410156,128.359375 C243.201897,128.359375 253.045548,132.968704 257.941406,142.1875 C258.462242,142.447918 260.233058,145.312473 263.253906,150.78125 C263.253906,150.989584 263.123699,151.09375 262.863281,151.09375 L263.253906,151.796875 L263.253906,152.5 C263.253906,159.89587 248.201973,171.770752 218.097656,188.125 C186.066246,204.948001 154.738434,219.635354 124.113281,232.1875 L122.707031,232.578125 C122.707031,231.536453 121.639334,230.598962 119.503906,229.765625 L119.191406,228.984375 L119.191406,228.671875 C119.191406,228.411457 119.295572,228.28125 119.503906,228.28125 C119.503906,227.656247 118.670581,226.250011 117.003906,224.0625 C117.003906,223.124995 116.430995,222.29167 115.285156,221.5625 L115.285156,220.46875 C114.555986,220.46875 114.191406,220.234377 114.191406,219.765625 C115.128911,219.661458 115.597656,219.296878 115.597656,218.671875 L116.300781,218.671875 L117.003906,219.0625 L119.894531,216.953125 C120.363284,217.161459 120.727863,217.265625 120.988281,217.265625 L120.597656,216.5625 C120.858074,216.5625 120.988281,216.458334 120.988281,216.25 L121.691406,216.5625 C125.441425,215.052076 127.316406,213.750005 127.316406,212.65625 L127.707031,212.65625 L128.410156,213.046875 C128.826825,212.473955 131.925752,210.677098 137.707031,207.65625 L138.019531,207.65625 C138.279949,207.65625 138.410156,207.786457 138.410156,208.046875 L145.832031,205.15625 L146.535156,205.15625 L146.535156,204.84375 L146.222656,204.140625 C147.00391,203.671873 147.707028,203.4375 148.332031,203.4375 L150.128906,203.4375 L150.128906,202.734375 L149.738281,202.734375 L149.035156,203.046875 L149.035156,202.734375 C149.035156,202.36979 150.467434,201.770837 153.332031,200.9375 C153.332031,200.312497 154.399729,199.843752 156.535156,199.53125 C156.535156,198.697913 157.472647,197.968753 159.347656,197.34375 L162.238281,197.34375 C162.342448,196.718747 164.582009,195.651049 168.957031,194.140625 L178.957031,188.828125 C181.092459,188.046871 182.160156,187.343753 182.160156,186.71875 L182.863281,187.03125 L183.175781,187.03125 L183.175781,186.71875 L182.472656,186.71875 L182.472656,186.328125 C182.628907,185.96354 184.425764,184.895842 187.863281,183.125 L187.863281,182.421875 L187.082031,182.421875 C187.082031,183.151045 186.743493,183.515625 186.066406,183.515625 L185.675781,182.8125 C191.248726,179.47915 194.582026,177.8125 195.675781,177.8125 L195.675781,178.125 C195.675781,178.593752 195.311202,178.828125 194.582031,178.828125 L194.582031,179.21875 L194.972656,179.21875 C196.378913,178.64583 197.082031,178.177085 197.082031,177.8125 L196.378906,177.8125 L196.378906,177.421875 C197.680996,176.32812 200.519509,174.66147 204.894531,172.421875 C204.946615,172.161457 206.014313,171.458339 208.097656,170.3125 L208.800781,170.703125 C209.269534,170.442707 209.634113,170.3125 209.894531,170.3125 L209.894531,171.015625 L209.191406,171.015625 L209.191406,171.40625 L209.503906,171.40625 C211.118498,171.40625 214.087218,169.635434 218.410156,166.09375 L217.707031,166.09375 C217.707031,166.614586 217.003913,166.953124 215.597656,167.109375 C215.441405,167.578127 214.009128,168.541659 211.300781,170 L210.988281,169.21875 C215.571638,166.145818 218.878896,164.270837 220.910156,163.59375 C220.910156,162.552078 222.446599,161.588546 225.519531,160.703125 C227.029955,159.505202 228.097653,158.90625 228.722656,158.90625 C227.733068,160.20834 225.72788,161.640617 222.707031,163.203125 L222.707031,163.59375 L223.410156,163.59375 C227.368509,162.135409 231.27472,159.401062 235.128906,155.390625 L234.816406,155.390625 C231.795558,157.526052 229.894535,158.59375 229.113281,158.59375 C232.707049,155.677069 237.316378,151.640651 242.941406,146.484375 L242.941406,146.171875 C241.847651,146.171875 238.175813,146.041668 231.925781,145.78125 C231.404945,145.78125 229.63413,146.015623 226.613281,146.484375 C226.352863,146.484375 226.222656,146.380209 226.222656,146.171875 C215.233018,147.317714 197.446738,149.921855 172.863281,153.984375 C170.936188,153.984375 168.462255,154.218748 165.441406,154.6875 L165.441406,154.296875 C164.243484,154.765627 162.108088,155 159.035156,155 L150.832031,155 C141.97782,155 136.04038,151.458369 133.019531,144.375 C133.019531,142.552074 131.951834,140.755217 129.816406,138.984375 C129.13932,136.74478 128.800781,135.338545 128.800781,134.765625 L128.800781,134.0625 C130.102871,133.177079 131.170569,131.380222 132.003906,128.671875 C135.024755,124.713522 137.628895,121.770843 139.816406,119.84375 C150.910212,109.010362 158.149723,103.072922 161.535156,102.03125 L171.847656,94.53125 C171.89974,93.3854109 172.238278,92.8125 172.863281,92.8125 L173.253906,93.515625 L173.253906,93.828125 L172.160156,93.828125 L172.160156,94.21875 L172.863281,94.21875 C174.946625,92.7083258 179.11325,90.5729305 185.363281,87.8125 C185.363281,87.1874969 186.300772,86.5885445 188.175781,86.015625 L188.175781,84.921875 L186.378906,85.625 L186.066406,84.921875 C188.097666,83.7760359 189.503902,82.6041727 190.285156,81.40625 L201.378906,76.796875 L202.082031,76.796875 C202.290366,76.796875 202.394531,76.9010406 202.394531,77.109375 L203.097656,76.796875 L203.800781,76.796875 L203.800781,77.109375 L203.097656,78.203125 C204.295579,78.6718773 205.128904,78.90625 205.597656,78.90625 C205.597656,78.2812469 207.029934,77.4479219 209.894531,76.40625 L209.894531,76.015625 C209.165361,76.015625 208.800781,75.7812523 208.800781,75.3125 L208.800781,74.609375 C208.800781,73.7760375 214.13927,72.0052219 224.816406,69.296875 C233.462283,67.1614477 239.035144,66.09375 241.535156,66.09375 L241.535156,66.09375 Z M207.394531,75.3125 L208.488281,75.3125 L208.488281,76.015625 L207.394531,76.015625 L207.394531,75.3125 Z M163.957031,103.125 L164.738281,103.125 C165.207034,103.125 165.441406,102.864586 165.441406,102.34375 L165.441406,102.03125 C164.451818,102.395835 163.957031,102.760415 163.957031,103.125 L163.957031,103.125 Z M152.238281,111.640625 L153.332031,111.640625 L153.332031,110.9375 L152.941406,110.9375 C152.472654,110.989584 152.238281,111.223956 152.238281,111.640625 L152.238281,111.640625 Z M150.441406,113.046875 L151.222656,113.4375 L151.925781,111.953125 L151.535156,111.953125 C151.222655,111.953125 150.858075,112.317705 150.441406,113.046875 L150.441406,113.046875 Z M134.113281,124.0625 L134.503906,124.0625 L134.503906,124.453125 C134.503906,124.765627 134.139327,125.104165 133.410156,125.46875 L133.019531,124.765625 L134.113281,124.0625 Z M132.003906,126.25 L132.707031,126.25 L132.707031,126.5625 C132.707031,127.031252 132.472659,127.265625 132.003906,127.265625 L132.003906,126.25 Z M187.863281,134.0625 L187.472656,134.765625 L187.863281,134.765625 C188.27995,134.505207 188.618488,134.375 188.878906,134.375 L188.878906,134.0625 L187.863281,134.0625 Z M170.050781,137.265625 L170.050781,137.578125 L171.144531,137.578125 L171.144531,136.875 C170.675779,137.135418 170.311199,137.265625 170.050781,137.265625 L170.050781,137.265625 Z M219.503906,165.703125 L219.816406,165.703125 C220.285159,165.703125 220.519531,165.468752 220.519531,165 L220.207031,165 C219.738279,165.052084 219.503906,165.286456 219.503906,165.703125 L219.503906,165.703125 Z M207.003906,172.421875 L207.785156,172.8125 C208.097658,172.8125 208.436196,172.44792 208.800781,171.71875 L207.785156,171.71875 C207.26432,171.822917 207.003906,172.05729 207.003906,172.421875 L207.003906,172.421875 Z M202.394531,174.921875 L203.097656,175.3125 L203.488281,175.3125 C203.957034,175.3125 204.191406,175.078127 204.191406,174.609375 L204.191406,174.21875 L203.097656,174.21875 C202.628904,174.322917 202.394531,174.55729 202.394531,174.921875 L202.394531,174.921875 Z M199.894531,176.71875 L200.597656,176.71875 C201.118492,176.71875 201.378906,176.484377 201.378906,176.015625 L200.597656,176.015625 C200.128904,176.067709 199.894531,176.302081 199.894531,176.71875 L199.894531,176.71875 Z M183.878906,183.828125 L183.878906,184.21875 C183.878906,184.739586 183.305995,185.078124 182.160156,185.234375 L181.769531,184.53125 C182.550785,184.062498 183.253903,183.828125 183.878906,183.828125 L183.878906,183.828125 Z M158.332031,195.9375 L159.738281,195.9375 C156.925767,197.552091 152.52477,199.687487 146.535156,202.34375 L146.222656,201.640625 L158.332031,195.9375 Z M162.550781,201.640625 L162.941406,201.640625 C163.410159,201.640625 163.644531,201.406252 163.644531,200.9375 L163.253906,200.9375 C162.785154,200.989584 162.550781,201.223956 162.550781,201.640625 L162.550781,201.640625 Z M124.113281,213.75 L124.503906,213.75 L124.503906,214.0625 C124.503906,214.531252 124.269534,214.765625 123.800781,214.765625 L123.097656,214.765625 C123.097656,214.453123 123.436195,214.114585 124.113281,213.75 L124.113281,213.75 Z M128.097656,215.46875 L128.800781,215.46875 C129.738286,215.156248 130.207031,214.81771 130.207031,214.453125 L129.503906,214.453125 C128.566402,214.81771 128.097656,215.156248 128.097656,215.46875 L128.097656,215.46875 Z M354.503906,86.015625 C358.306009,87.0052133 360.207031,88.5156148 360.207031,90.546875 C363.436214,96.3802375 365.050781,100.390614 365.050781,102.578125 C364.634113,105.442723 364.425781,107.187497 364.425781,107.8125 C364.686199,107.8125 365.4414,107.473962 366.691406,106.796875 C366.951824,107.057293 367.446611,107.1875 368.175781,107.1875 C368.175781,106.718748 369.113272,106.484375 370.988281,106.484375 L370.988281,107.1875 L372.394531,106.796875 L372.394531,107.1875 C372.602866,107.1875 372.707031,107.057293 372.707031,106.796875 L374.660156,107.1875 L375.285156,107.1875 L375.285156,107.8125 L374.425781,109.140625 C374.582032,109.557294 374.660156,109.869791 374.660156,110.078125 C371.535141,111.953134 366.89977,114.244778 360.753906,116.953125 L360.441406,117.578125 L360.441406,117.890625 C368.61853,114.140606 373.748687,111.640631 375.832031,110.390625 L376.144531,111.09375 C375.050776,113.541679 370.49353,116.354151 362.472656,119.53125 L362.472656,119.84375 C362.628907,120.260419 362.707031,120.572916 362.707031,120.78125 L362.160156,120.78125 L361.300781,120.15625 L360.753906,120.15625 L361.066406,120.78125 C360.858072,121.250002 360.753906,121.588541 360.753906,121.796875 L360.441406,121.796875 L359.035156,121.484375 C359.035156,121.901044 358.670577,122.447913 357.941406,123.125 C358.097657,123.125 358.358071,123.229166 358.722656,123.4375 C359.139325,123.229166 359.42578,123.125 359.582031,123.125 C359.582031,123.333334 359.686197,123.4375 359.894531,123.4375 L362.472656,121.484375 L363.019531,121.796875 C363.957036,121.119788 364.634113,120.78125 365.050781,120.78125 L365.050781,121.171875 C364.790363,121.692711 362.889341,122.760409 359.347656,124.375 C359.347656,124.843752 359.634112,125.078125 360.207031,125.078125 L360.207031,125.703125 C356.56118,126.901048 354.738281,128.411449 354.738281,130.234375 L354.191406,131.25 C354.399741,131.666669 354.503906,131.979166 354.503906,132.1875 C353.82682,132.500002 350.597685,137.708283 344.816406,147.8125 C338.670542,157.656299 333.462261,166.536419 329.191406,174.453125 C327.576815,177.42189 325.962248,179.27083 324.347656,180 C321.274724,186.250031 318.904956,189.505207 317.238281,189.765625 L317.238281,190.390625 C317.602866,190.390625 317.785156,190.494791 317.785156,190.703125 C317.785156,191.06771 316.457045,192.708319 313.800781,195.625 C311.769521,193.02082 310.25912,191.71875 309.269531,191.71875 L307.550781,191.71875 L307.785156,190.078125 L305.285156,187.5 C304.76432,187.5 304.477865,187.057296 304.425781,186.171875 C305.519537,183.20311 310.831984,174.218825 320.363281,159.21875 C320.415365,158.229162 322.785133,154.218785 327.472656,147.1875 L328.878906,144.53125 L328.878906,144.21875 L320.910156,147.5 C320.910156,147.291666 320.805991,147.1875 320.597656,147.1875 C320.337238,148.177088 312.082112,152.187465 295.832031,159.21875 C294.894527,159.895837 293.09767,160.859369 290.441406,162.109375 C285.28513,171.01567 281.769541,176.874986 279.894531,179.6875 C277.342435,183.802104 275.936199,185.859375 275.675781,185.859375 L275.675781,185.546875 C276.248701,184.713538 276.535156,184.062502 276.535156,183.59375 L275.910156,183.59375 C274.608066,186.406264 272.915375,189.218736 270.832031,192.03125 L271.066406,192.65625 L271.066406,193.359375 L270.832031,193.359375 L270.285156,192.96875 C268.878899,194.791676 266.222676,197.187485 262.316406,200.15625 L262.003906,200.15625 C261.274736,199.479163 260.41537,198.932294 259.425781,198.515625 L259.738281,197.890625 C259.738281,197.630207 258.696625,196.770841 256.613281,195.3125 L254.894531,195.625 C254.529946,195.625 254.347656,195.390627 254.347656,194.921875 L254.347656,194.609375 L254.894531,193.671875 C253.644525,193.098955 252.967448,192.552086 252.863281,192.03125 L252.863281,191.015625 C252.498696,191.015625 252.316406,190.807294 252.316406,190.390625 C253.82683,188.932284 256.873675,184.479204 261.457031,177.03125 L261.457031,176.71875 C251.092396,181.875026 244.920583,184.713539 242.941406,185.234375 C242.42057,184.557288 241.847659,184.21875 241.222656,184.21875 C240.337235,183.333329 239.295579,182.031259 238.097656,180.3125 C236.326814,178.385407 235.285158,177.421875 234.972656,177.421875 C234.399737,177.421875 234.113281,177.187502 234.113281,176.71875 L234.425781,176.09375 C233.54036,175.312496 232.863284,174.45313 232.394531,173.515625 L232.394531,171.875 C234.321624,170.677077 238.019504,168.828137 243.488281,166.328125 C249.061226,163.307277 252.10807,161.796875 252.628906,161.796875 C257.993516,158.411441 266.326766,154.062527 277.628906,148.75 C279.13933,148.645833 281.430974,145.62503 284.503906,139.6875 C293.670619,124.166589 299.165355,115.156262 300.988281,112.65625 L301.535156,112.65625 L301.535156,113.046875 L300.128906,115.625 L300.128906,115.9375 C301.743498,113.958323 304.582011,108.854208 308.644531,100.625 C309.373702,99.9479133 310.519523,97.6823109 312.082031,93.828125 L312.628906,93.515625 C316.170591,93.515625 319.399725,97.7343328 322.316406,106.171875 L322.316406,106.796875 C315.858041,119.03652 311.22267,127.395811 308.410156,131.875 C307.628902,133.17709 307.238281,134.036456 307.238281,134.453125 L307.550781,134.453125 C308.592453,133.671871 311.821588,132.16147 317.238281,129.921875 C334.946703,121.275998 343.95703,116.953125 344.269531,116.953125 C344.842451,116.276038 345.884107,114.322933 347.394531,111.09375 C347.654949,111.09375 348.305984,110.208342 349.347656,108.4375 L349.972656,108.4375 L349.660156,106.796875 L350.207031,106.484375 C350.207031,106.692709 350.311197,106.796875 350.519531,106.796875 C350.519531,106.43229 351.274732,104.713557 352.785156,101.640625 C353.56641,99.4531141 354.217445,97.1875117 354.738281,94.84375 C354.373696,94.84375 354.191406,94.6093773 354.191406,94.140625 L354.191406,93.515625 C354.555991,93.0468727 354.842447,91.9531336 355.050781,90.234375 L354.191406,86.328125 C354.399741,86.328125 354.503906,86.2239594 354.503906,86.015625 L354.503906,86.015625 Z M305.519531,104.921875 L305.832031,105.546875 C305.727864,105.546875 305.154953,106.19791 304.113281,107.5 L303.800781,107.5 L303.800781,107.1875 C304.79037,105.677076 305.36328,104.921875 305.519531,104.921875 L305.519531,104.921875 Z M299.582031,116.953125 L299.582031,117.265625 C299.946616,117.265625 300.128906,117.031252 300.128906,116.5625 L300.128906,116.25 C299.764321,116.302084 299.582031,116.536456 299.582031,116.953125 L299.582031,116.953125 Z M366.457031,118.203125 L367.003906,118.203125 L367.003906,118.828125 L365.910156,118.828125 C365.96224,118.411456 366.14453,118.203125 366.457031,118.203125 L366.457031,118.203125 Z M365.910156,118.828125 C365.910156,119.348961 365.128914,119.791665 363.566406,120.15625 L363.566406,119.53125 C364.816413,119.062498 365.597655,118.828125 365.910156,118.828125 L365.910156,118.828125 Z M357.316406,125.703125 L357.316406,126.015625 L357.628906,126.015625 C357.993491,125.807291 358.279947,125.703125 358.488281,125.703125 L358.488281,125.078125 L357.941406,125.078125 C357.524738,125.130209 357.316406,125.33854 357.316406,125.703125 L357.316406,125.703125 Z M331.457031,130.546875 L331.457031,130.859375 L332.863281,130.859375 C334.842458,129.609369 336.17057,128.984375 336.847656,128.984375 L336.847656,128.59375 L335.988281,128.59375 C334.998693,129.32292 333.488291,129.973955 331.457031,130.546875 L331.457031,130.546875 Z M324.347656,134.453125 L324.582031,134.453125 C325.311202,133.984373 326.352858,133.56771 327.707031,133.203125 L327.707031,132.5 C325.467437,133.489588 324.347656,134.140623 324.347656,134.453125 L324.347656,134.453125 Z M286.222656,139.6875 C286.483074,139.6875 286.847654,139.14063 287.316406,138.046875 L287.316406,137.734375 C286.587236,138.151044 286.222656,138.802079 286.222656,139.6875 L286.222656,139.6875 Z M328.878906,142.578125 L329.191406,142.578125 C329.920577,142.265623 330.285156,141.953127 330.285156,141.640625 L330.050781,141.640625 C329.269527,141.953127 328.878906,142.265623 328.878906,142.578125 L328.878906,142.578125 Z M322.316406,145.234375 L322.316406,145.546875 L322.863281,145.546875 C325.363294,144.244785 326.899737,143.59375 327.472656,143.59375 L327.472656,143.28125 L326.300781,143.28125 C324.009103,144.58334 322.680991,145.234375 322.316406,145.234375 L322.316406,145.234375 Z M318.332031,147.5 L318.644531,147.5 C320.519541,146.77083 321.665363,146.119795 322.082031,145.546875 L321.457031,145.546875 C319.373688,146.536463 318.332031,147.187498 318.332031,147.5 L318.332031,147.5 Z M316.925781,148.125 L317.472656,148.125 C317.889325,148.125 318.097656,147.916669 318.097656,147.5 L317.472656,147.5 C317.108071,147.552084 316.925781,147.760415 316.925781,148.125 L316.925781,148.125 Z M313.800781,149.140625 L313.800781,149.453125 L314.347656,149.453125 C314.712241,149.244791 314.998697,149.140625 315.207031,149.140625 L315.207031,148.75 L314.894531,148.75 C314.58203,149.010418 314.21745,149.140625 313.800781,149.140625 L313.800781,149.140625 Z M312.628906,150.078125 L312.941406,150.078125 C313.305991,150.078125 313.488281,149.869794 313.488281,149.453125 L313.253906,149.453125 C312.837238,149.505209 312.628906,149.71354 312.628906,150.078125 L312.628906,150.078125 Z M310.910156,150.390625 L310.910156,151.09375 C311.535159,150.624998 312.029946,150.390625 312.394531,150.390625 L312.394531,150.078125 L311.769531,150.078125 C311.404946,150.286459 311.118491,150.390625 310.910156,150.390625 L310.910156,150.390625 Z M308.957031,151.40625 L308.957031,151.71875 L309.269531,151.71875 C309.582033,151.510416 309.946613,151.40625 310.363281,151.40625 L310.363281,151.09375 L309.816406,151.09375 C309.451821,151.302084 309.165366,151.40625 308.957031,151.40625 L308.957031,151.40625 Z M294.972656,157.890625 L294.972656,158.203125 L295.285156,158.203125 C299.035175,156.692701 300.936198,155.729169 300.988281,155.3125 L300.675781,155.3125 C297.134097,157.031259 295.233074,157.890625 294.972656,157.890625 L294.972656,157.890625 Z M291.847656,159.84375 L292.160156,159.84375 C292.524741,159.84375 292.707031,159.635419 292.707031,159.21875 L292.472656,159.21875 C292.055988,159.270834 291.847656,159.479165 291.847656,159.84375 L291.847656,159.84375 Z M276.535156,182.890625 L276.535156,183.28125 C276.795574,183.28125 277.08203,182.942712 277.394531,182.265625 L277.394531,181.953125 C277.08203,181.953125 276.795574,182.265622 276.535156,182.890625 L276.535156,182.890625 Z M430.050781,88.125 C432.394543,88.125 434.113276,88.4895797 435.207031,89.21875 C439.217468,92.4479328 441.248698,94.2447898 441.300781,94.609375 C441.300781,96.4843844 439.998711,100.807258 437.394531,107.578125 C436.092441,110.54689 434.139336,115.781212 431.535156,123.28125 L431.144531,123.984375 L431.144531,124.375 C433.436209,123.80208 434.868487,123.385418 435.441406,123.125 L436.535156,123.28125 C436.535156,123.020832 437.029943,122.812501 438.019531,122.65625 C438.332033,122.812501 438.540364,122.890625 438.644531,122.890625 C438.644531,122.52604 440.154933,122.083336 443.175781,121.5625 C444.634122,120.98958 446.014316,120.625001 447.316406,120.46875 L447.316406,120.703125 L447.707031,120.46875 L448.175781,120.46875 L449.660156,120.703125 C449.660156,120.442707 450.233067,120.234376 451.378906,120.078125 C451.847659,119.869791 452.082031,119.583335 452.082031,119.21875 L453.332031,118.984375 C454.113285,119.140626 454.686196,119.21875 455.050781,119.21875 L455.050781,119.453125 C455.050781,119.713543 454.84245,119.84375 454.425781,119.84375 L454.425781,120.078125 L455.050781,120.078125 C455.363283,120.078125 455.519531,119.921877 455.519531,119.609375 C455.36328,119.609375 455.285156,119.557292 455.285156,119.453125 C455.805992,119.036456 456.535152,118.750001 457.472656,118.59375 C459.556,119.16667 460.779946,119.453125 461.144531,119.453125 C461.144531,119.140623 461.274738,118.984375 461.535156,118.984375 L462.003906,118.984375 C462.78516,118.984375 463.279947,119.27083 463.488281,119.84375 C462.915362,120.052084 462.628906,120.260416 462.628906,120.46875 C462.785157,120.46875 462.863281,120.546874 462.863281,120.703125 C462.55078,120.859376 462.316407,120.9375 462.160156,120.9375 L461.144531,120.703125 L461.300781,121.171875 C461.300781,121.432293 461.170574,121.5625 460.910156,121.5625 L459.816406,121.5625 L459.816406,121.796875 C459.972657,122.057293 460.050781,122.265624 460.050781,122.421875 L459.582031,122.65625 L458.488281,122.65625 L458.488281,123.125 L458.722656,123.125 C459.035158,122.968749 459.26953,122.890625 459.425781,122.890625 L459.425781,123.125 C459.894534,122.812498 460.311196,122.65625 460.675781,122.65625 L460.675781,122.890625 C460.675781,123.151043 459.035173,123.64583 455.753906,124.375 C454.608067,124.583334 454.035156,124.947914 454.035156,125.46875 L453.332031,125.46875 L452.707031,125 C452.290363,125.416669 451.561203,125.703124 450.519531,125.859375 L450.519531,126.09375 C450.779949,126.09375 451.222653,126.380205 451.847656,126.953125 C452.108074,126.796874 452.316405,126.71875 452.472656,126.71875 L452.472656,126.953125 C452.472656,127.161459 452.264325,127.369791 451.847656,127.578125 L451.378906,127.421875 C451.378906,127.682293 451.248699,127.8125 450.988281,127.8125 L449.894531,127.8125 L449.894531,127.421875 L451.222656,127.421875 L451.222656,127.1875 C451.222656,126.979166 450.936201,126.770834 450.363281,126.5625 C450.363281,126.822918 450.207033,126.953125 449.894531,126.953125 L449.503906,126.953125 L449.503906,126.328125 L449.035156,126.328125 L449.035156,126.5625 L449.269531,126.953125 L448.800781,127.1875 L448.410156,127.1875 L448.410156,126.71875 L447.550781,126.71875 L447.550781,127.1875 L447.941406,126.953125 L448.175781,126.953125 L448.175781,127.1875 C448.175781,127.500002 446.66538,127.942705 443.644531,128.515625 C443.696615,128.776043 443.826822,128.90625 444.035156,128.90625 C444.608076,128.645832 445.701815,128.359377 447.316406,128.046875 L447.550781,128.046875 L447.550781,128.515625 C447.39453,128.515625 447.160158,128.567708 446.847656,128.671875 L447.082031,129.140625 L447.082031,129.375 L446.457031,128.90625 L446.222656,128.90625 C445.389319,129.010417 444.972656,129.218748 444.972656,129.53125 L445.597656,129.53125 L445.597656,129.140625 L446.222656,129.140625 L446.222656,129.765625 C445.024734,129.921876 443.722663,130.286455 442.316406,130.859375 C442.055988,130.703124 441.847657,130.625 441.691406,130.625 C441.691406,130.937502 441.561199,131.09375 441.300781,131.09375 L440.597656,130.625 L440.207031,130.859375 L439.738281,130.625 L436.769531,131.71875 C436.45703,131.562499 436.222657,131.484375 436.066406,131.484375 C435.076818,132.109378 434.582031,132.552082 434.582031,132.8125 C432.082019,133.38542 430.363286,134.036455 429.425781,134.765625 L429.660156,135.15625 L429.660156,135.625 C429.503905,136.041669 429.061202,136.25 428.332031,136.25 L427.238281,136.015625 C427.238281,136.484377 426.821619,136.848957 425.988281,137.109375 L420.597656,150.078125 L409.582031,177.03125 C408.904945,178.125005 407.316419,181.848927 404.816406,188.203125 C401.639307,194.401073 400.050781,197.994787 400.050781,198.984375 C399.582029,199.869796 399.217449,200.3125 398.957031,200.3125 L398.800781,200.3125 C398.48828,200.3125 398.332031,200.104169 398.332031,199.6875 L397.082031,200.3125 C397.082031,199.58333 396.639327,199.140626 395.753906,198.984375 C395.753906,198.671873 395.311202,198.255211 394.425781,197.734375 C394.425781,197.942709 394.21745,198.151041 393.800781,198.359375 C393.800781,198.151041 393.514326,197.656254 392.941406,196.875 C392.472654,197.135418 392.055991,197.265625 391.691406,197.265625 L391.457031,197.265625 L391.457031,196.875 C391.457031,196.562498 391.535155,196.276043 391.691406,196.015625 C391.483072,194.973953 391.170575,194.453125 390.753906,194.453125 C392.680999,187.265589 394.191401,183.255212 395.285156,182.421875 C395.024738,182.421875 394.894531,182.265627 394.894531,181.953125 C395.363284,181.953125 395.85807,181.171883 396.378906,179.609375 L396.847656,179.375 L396.613281,178.984375 L396.613281,178.28125 C398.488291,175.104151 400.441396,170.729195 402.472656,165.15625 L402.238281,164.6875 C403.38412,162.552073 404.608066,159.53127 405.910156,155.625 C406.639327,155.05208 407.707024,152.63023 409.113281,148.359375 C409.790368,147.682288 410.597652,145.807307 411.535156,142.734375 C411.951825,142.161455 412.160156,141.588545 412.160156,141.015625 C411.847655,141.119792 411.639323,141.171875 411.535156,141.171875 C411.535156,141.067708 411.457032,141.015625 411.300781,141.015625 C411.300781,141.276043 411.144533,141.40625 410.832031,141.40625 L410.675781,141.40625 L409.972656,141.015625 L409.738281,141.015625 L409.113281,141.40625 C408.852863,141.40625 408.722656,141.197919 408.722656,140.78125 C407.160148,140.78125 404.79038,141.432285 401.613281,142.734375 L402.003906,143.828125 C399.503894,144.817713 396.977877,145.67708 394.425781,146.40625 C392.915357,146.770835 392.003908,147.057291 391.691406,147.265625 L391.457031,147.265625 L390.753906,146.796875 L390.597656,146.796875 L390.753906,147.265625 L390.363281,147.5 C390.363281,147.187498 390.207033,147.03125 389.894531,147.03125 L389.503906,147.03125 L389.738281,147.5 L389.738281,147.890625 L376.144531,152.1875 C374.842441,152.1875 371.951845,154.557268 367.472656,159.296875 C352.472581,172.942777 342.134143,180.494784 336.457031,181.953125 C336.092446,181.953125 335.805991,182.031249 335.597656,182.1875 C333.983065,181.927082 332.394539,181.067716 330.832031,179.609375 C330.467446,179.453124 329.60808,178.880213 328.253906,177.890625 C328.410157,177.890625 328.488281,177.812501 328.488281,177.65625 C328.17578,177.65625 328.019531,177.526043 328.019531,177.265625 L328.019531,176.5625 C328.227866,176.093748 331.09242,174.531263 336.613281,171.875 C342.707062,167.23956 347.602846,163.203142 351.300781,159.765625 L351.300781,159.53125 C346.404923,160.83334 342.238298,161.77083 338.800781,162.34375 C338.540363,162.187499 338.253908,162.109375 337.941406,162.109375 C337.941406,162.47396 337.576827,162.708333 336.847656,162.8125 L336.613281,162.34375 C336.769532,162.34375 336.847656,162.265626 336.847656,162.109375 C335.805984,162.109375 334.373707,161.119802 332.550781,159.140625 L331.222656,158.90625 L330.363281,158.90625 L330.363281,158.671875 L330.832031,158.046875 L330.832031,157.8125 C330.259112,157.8125 329.686201,157.369796 329.113281,156.484375 L329.113281,155.625 C330.571622,154.531245 334.946578,153.177091 342.238281,151.5625 C344.425792,150.624995 348.956997,149.270842 355.832031,147.5 C358.644545,146.302077 361.535141,145.364587 364.503906,144.6875 C364.503906,144.427082 365.076817,144.140627 366.222656,143.828125 L366.222656,143.984375 C368.618502,143.411455 370.493483,142.265634 371.847656,140.546875 C372.576827,140.546875 372.993489,140.130212 373.097656,139.296875 C373.462241,139.296875 374.399732,138.411467 375.910156,136.640625 C376.535159,136.640625 376.977863,136.302087 377.238281,135.625 C377.915368,134.635412 380.050763,132.473975 383.644531,129.140625 L394.894531,118.125 C399.425804,113.958313 401.795572,111.875 402.003906,111.875 C403.305996,110.260409 405.389309,108.307303 408.253906,106.015625 C408.514324,106.171876 408.722655,106.25 408.878906,106.25 C409.191408,105.416663 409.477863,105 409.738281,105 C409.738281,105.104167 409.816405,105.15625 409.972656,105.15625 C409.972656,104.58333 410.493484,104.296875 411.535156,104.296875 L411.300781,103.90625 L411.300781,103.671875 C411.352865,103.359373 411.483072,103.203125 411.691406,103.203125 C411.691406,103.359376 411.76953,103.4375 411.925781,103.4375 C412.811202,102.447912 413.253906,101.875001 413.253906,101.71875 L413.644531,101.953125 L413.878906,101.953125 C413.878906,100.807286 416.457005,98.2812695 421.613281,94.375 C422.342452,93.3854117 423.722646,92.1614656 425.753906,90.703125 C426.378909,90.0260383 427.811187,89.1666719 430.050781,88.125 L430.050781,88.125 Z M412.394531,102.34375 L412.550781,102.34375 C412.550781,102.552084 412.34245,102.786457 411.925781,103.046875 L411.925781,102.8125 C411.977865,102.499998 412.134113,102.34375 412.394531,102.34375 L412.394531,102.34375 Z M425.285156,105.625 L425.285156,105 C419.660128,109.427105 408.59253,119.635337 392.082031,135.625 L391.847656,135.625 L391.847656,136.015625 C404.556053,132.265606 412.680972,129.765631 416.222656,128.515625 C416.222656,128.359374 416.30078,128.28125 416.457031,128.28125 C416.613282,128.28125 416.691406,128.359374 416.691406,128.515625 C417.264326,128.515625 418.410148,125.989609 420.128906,120.9375 C422.264334,115.781224 423.332031,112.968752 423.332031,112.5 C423.123697,112.5 422.707034,113.307284 422.082031,114.921875 L421.847656,114.921875 C421.847656,114.765624 421.769532,114.6875 421.613281,114.6875 C422.446619,112.552073 422.967447,111.406251 423.175781,111.25 L422.941406,110.78125 L422.941406,110.546875 C423.358075,110.18229 424.00911,108.619805 424.894531,105.859375 L425.285156,105.625 L425.285156,105.859375 C425.285156,106.640629 424.868494,107.916658 424.035156,109.6875 L424.035156,110.390625 C424.243491,110.390625 425.102857,108.229188 426.613281,103.90625 L426.378906,103.90625 L425.285156,105.625 Z M452.082031,120.3125 L451.847656,120.703125 L452.082031,120.703125 C452.342449,120.546874 452.55078,120.46875 452.707031,120.46875 L452.707031,120.3125 L452.082031,120.3125 Z M461.769531,122.1875 L462.394531,122.1875 L462.394531,122.65625 L461.769531,122.65625 L461.769531,122.1875 Z M442.785156,128.90625 L443.410156,128.90625 L443.410156,128.515625 L443.175781,128.515625 C442.915363,128.515625 442.785156,128.645832 442.785156,128.90625 L442.785156,128.90625 Z M441.691406,129.140625 L441.691406,129.375 L442.316406,129.375 L442.316406,128.90625 C442.055988,129.062501 441.847657,129.140625 441.691406,129.140625 L441.691406,129.140625 Z M443.410156,129.765625 L443.644531,129.765625 C443.904949,129.765625 444.035156,129.635418 444.035156,129.375 L443.878906,129.375 C443.566405,129.375 443.410156,129.505207 443.410156,129.765625 L443.410156,129.765625 Z M435.910156,130.390625 C436.066407,130.390625 436.274738,130.468749 436.535156,130.625 L436.925781,130.625 L436.925781,130.390625 C436.509113,130.390625 436.300781,130.260418 436.300781,130 C436.040363,130.052084 435.910156,130.182291 435.910156,130.390625 L435.910156,130.390625 Z M437.785156,130 C437.83724,130.260418 437.993488,130.390625 438.253906,130.390625 L438.488281,130 L437.785156,130 Z M434.816406,131.09375 L435.207031,131.09375 C435.519533,130.937499 435.753905,130.859375 435.910156,130.859375 L435.910156,130.625 L435.207031,130.625 C434.946613,130.677084 434.816406,130.833332 434.816406,131.09375 L434.816406,131.09375 Z M433.488281,131.25 L433.253906,131.25 L432.863281,131.09375 C432.863281,131.354168 432.498702,131.640623 431.769531,131.953125 L431.144531,131.953125 L430.285156,131.25 L430.285156,131.484375 L430.519531,131.953125 L430.050781,132.109375 C430.050781,131.848957 429.920574,131.71875 429.660156,131.71875 L429.425781,131.71875 L429.660156,132.109375 C429.347655,132.161459 429.191406,132.317707 429.191406,132.578125 L429.191406,132.8125 L434.582031,131.25 C434.582031,130.989582 434.425783,130.859375 434.113281,130.859375 L433.488281,131.25 Z M436.535156,131.25 L437.160156,131.25 L437.160156,130.859375 L436.925781,130.859375 C436.665363,130.911459 436.535156,131.041666 436.535156,131.25 L436.535156,131.25 Z M428.332031,135.78125 L428.722656,135.78125 C429.035158,135.78125 429.191406,135.651043 429.191406,135.390625 L429.191406,135.15625 L428.957031,135.15625 C428.748697,135.15625 428.540366,135.364581 428.332031,135.78125 L428.332031,135.78125 Z M514.191406,88.125 L520.675781,88.125 C523.488295,88.1770836 524.894531,88.3593734 524.894531,88.671875 L525.363281,88.359375 C525.884117,88.6718766 527.811181,89.0885391 531.144531,89.609375 C536.717476,91.9010531 540.207024,94.6614422 541.613281,97.890625 C544.269545,102.057312 545.597656,105.052074 545.597656,106.875 C544.712235,110.989604 538.722712,116.302051 527.628906,122.8125 C520.28512,126.979187 510.571675,131.718723 498.488281,137.03125 C485.675717,143.177114 478.774745,146.25 477.785156,146.25 L477.785156,146.484375 C478.305992,147.057295 480.962216,148.489572 485.753906,150.78125 C485.753906,150.989584 487.915343,152.39582 492.238281,155 L499.425781,160.234375 C505.519562,166.067737 509.686187,170.572901 511.925781,173.75 C518.696648,183.489632 522.602859,190.963516 523.644531,196.171875 C522.967445,196.848962 522.316409,197.1875 521.691406,197.1875 C520.024731,197.1875 518.930992,196.015637 518.410156,193.671875 C517.576819,192.786454 517.160156,192.213543 517.160156,191.953125 C517.160156,191.640623 516.509121,190.703133 515.207031,189.140625 C513.071604,183.255179 510.233091,178.515643 506.691406,174.921875 C504.295561,171.901027 500.884137,168.671892 496.457031,165.234375 C485.779895,158.307257 477.785183,154.401046 472.472656,153.515625 L465.988281,164.21875 C462.759098,168.489605 457.6029,175.80724 450.519531,186.171875 C450.154946,186.171875 447.915385,188.932264 443.800781,194.453125 C441.925772,197.994809 440.259122,199.895832 438.800781,200.15625 L438.332031,199.140625 L437.863281,199.375 L437.550781,199.375 C437.082029,198.749997 436.430994,198.25521 435.597656,197.890625 C435.597656,196.744786 434.842455,196.171875 433.332031,196.171875 C433.332031,195.80729 433.097659,195.312503 432.628906,194.6875 L432.082031,194.921875 L431.613281,194.921875 C431.040362,193.82812 430.285161,192.91667 429.347656,192.1875 C430.389328,190.989577 431.144529,190.390625 431.613281,190.390625 L431.613281,190.15625 L431.378906,189.6875 C431.535157,189.6875 431.613281,189.609376 431.613281,189.453125 L432.082031,189.6875 C432.342449,189.6875 432.602863,189.427086 432.863281,188.90625 C432.70703,188.593748 432.628906,188.359376 432.628906,188.203125 C433.149742,187.473955 433.800777,187.057292 434.582031,186.953125 L434.582031,186.71875 C434.42578,186.354165 434.347656,186.093751 434.347656,185.9375 C435.180994,185.9375 436.430981,184.687512 438.097656,182.1875 C438.774743,181.562497 439.529944,180.494799 440.363281,178.984375 C440.623699,178.984375 441.274734,177.890636 442.316406,175.703125 C443.09766,175.494791 444.347648,173.411478 446.066406,169.453125 C446.378908,169.453125 446.873695,168.80209 447.550781,167.5 L447.550781,167.1875 L447.082031,167.1875 L447.082031,166.71875 L447.316406,166.71875 C447.628908,166.875001 447.889322,166.953125 448.097656,166.953125 C448.618492,165.494784 449.425776,164.505211 450.519531,163.984375 C450.519531,163.463539 451.352856,162.55209 453.019531,161.25 C453.071615,160.104161 453.748691,158.776049 455.050781,157.265625 C454.89453,157.265625 454.816406,157.187501 454.816406,157.03125 C455.180991,156.979166 456.430979,155.312516 458.566406,152.03125 C458.930991,152.03125 459.165364,151.536463 459.269531,150.546875 C460.936206,149.140618 461.769531,147.89063 461.769531,146.796875 C461.61328,146.067705 460.779955,145.05209 459.269531,143.75 C458.592445,142.916663 458.253906,142.265627 458.253906,141.796875 L458.253906,141.25 C458.253906,140.624997 459.503894,140.13021 462.003906,139.765625 C466.69143,138.359368 469.035156,137.10938 469.035156,136.015625 C469.399741,136.015625 470.649729,134.192727 472.785156,130.546875 C474.764333,127.161441 476.587231,124.843756 478.253906,123.59375 L478.253906,123.28125 L478.019531,122.8125 L478.722656,122.8125 L478.488281,122.34375 C478.488281,121.406245 478.983068,120.729169 479.972656,120.3125 C479.972656,119.791664 480.649733,118.619801 482.003906,116.796875 C484.347668,113.463525 486.587229,109.66148 488.722656,105.390625 C488.566405,105.390625 488.488281,105.286459 488.488281,105.078125 C483.748674,106.432298 477.759151,108.437487 470.519531,111.09375 C461.873655,114.895852 456.951829,116.796875 455.753906,116.796875 C454.295566,116.484373 453.305992,115.833338 452.785156,114.84375 C452.472655,113.489577 451.717454,112.578127 450.519531,112.109375 C450.519531,111.119787 449.868496,110.520834 448.566406,110.3125 L448.566406,110.078125 C448.722657,110.078125 448.800781,110.000001 448.800781,109.84375 C448.332029,109.84375 447.993491,109.088549 447.785156,107.578125 C448.358076,107.109373 450.779927,106.197923 455.050781,104.84375 C464.946664,100.364561 474.087198,97.0312609 482.472656,94.84375 C489.295607,93.3854094 493.462232,92.1614633 494.972656,91.171875 C495.701827,91.171875 496.352862,90.9114609 496.925781,90.390625 L497.238281,90.390625 C497.394532,90.390625 497.472656,90.4687492 497.472656,90.625 L497.941406,90.390625 C500.02475,90.5468758 501.118489,90.625 501.222656,90.625 C503.253916,89.9479133 505.076815,89.609375 506.691406,89.609375 L506.457031,89.140625 L506.925781,88.90625 L506.925781,89.609375 C511.352887,88.9322883 513.774738,88.4375016 514.191406,88.125 L514.191406,88.125 Z M512.707031,100.390625 L512.707031,100.078125 L501.925781,102.109375 L501.222656,102.109375 L501.222656,102.34375 C501.847659,103.333338 502.264322,104.166663 502.472656,104.84375 L490.988281,125.78125 C490.779947,125.78125 490.180995,126.536451 489.191406,128.046875 L489.738281,128.046875 C493.436216,126.067698 497.75909,124.166676 502.707031,122.34375 C508.540394,119.218734 513.774716,116.145848 518.410156,113.125 L518.175781,113.125 C518.071614,113.125 516.977875,113.515621 514.894531,114.296875 C516.04037,112.994785 517.290358,112.34375 518.644531,112.34375 C518.696615,112.656252 518.878905,112.8125 519.191406,112.8125 L519.425781,112.8125 C519.738283,112.8125 519.894531,112.656252 519.894531,112.34375 C519.894531,112.187499 519.816407,112.109375 519.660156,112.109375 C520.962246,110.546867 524.295546,107.890644 529.660156,104.140625 C529.660156,103.828123 530.727854,102.65626 532.863281,100.625 L532.863281,99.84375 L532.628906,99.84375 C529.868476,99.5312484 528.045577,99.375 527.160156,99.375 C521.639295,99.375 516.821635,99.7135383 512.707031,100.390625 L512.707031,100.390625 Z M522.628906,110.625 L523.175781,110.625 C523.488283,110.625 523.644531,110.44271 523.644531,110.078125 L523.175781,110.078125 C522.811196,110.130209 522.628906,110.312498 522.628906,110.625 L522.628906,110.625 Z M460.050781,148.046875 L460.285156,148.046875 C460.076822,149.192714 459.738284,149.765625 459.269531,149.765625 C459.269531,149.609374 459.191407,149.53125 459.035156,149.53125 C459.399741,148.541662 459.73828,148.046875 460.050781,148.046875 L460.050781,148.046875 Z M458.019531,151.015625 L458.253906,151.015625 C457.889321,152.630216 456.561209,154.453115 454.269531,156.484375 L454.269531,156.015625 L458.019531,151.015625 Z M454.269531,156.484375 L454.269531,157.03125 C454.269531,157.343752 454.113283,157.5 453.800781,157.5 L453.800781,157.03125 C453.852865,156.666665 454.009113,156.484375 454.269531,156.484375 L454.269531,156.484375 Z M448.332031,165.234375 L448.566406,165.234375 C448.566406,165.494793 448.305992,165.755207 447.785156,166.015625 L447.785156,165.703125 C447.83724,165.390623 448.01953,165.234375 448.332031,165.234375 L448.332031,165.234375 Z M445.285156,169.453125 L445.285156,170 C445.285156,170.312502 445.128908,170.46875 444.816406,170.46875 L444.816406,170 C444.86849,169.635415 445.024738,169.453125 445.285156,169.453125 L445.285156,169.453125 Z M618.800781,87.1875 L618.800781,87.5 L618.253906,88.4375 L618.253906,88.75 L619.347656,88.75 C620.076827,88.1249969 621.483062,87.8125 623.566406,87.8125 C626.170586,88.2812523 627.472656,89.4270742 627.472656,91.25 L627.472656,91.5625 C627.264322,91.9791687 627.160156,92.2916656 627.160156,92.5 C628.045577,92.5520836 628.488281,92.8645805 628.488281,93.4375 L628.488281,93.75 C627.446609,94.7395883 626.925781,95.364582 626.925781,95.625 L626.378906,95.3125 L625.128906,95.3125 C625.128906,95.7291688 625.467445,95.9375 626.144531,95.9375 L626.144531,96.5625 L624.816406,96.25 L624.582031,96.875 C625.467452,96.875 625.910156,97.0833313 625.910156,97.5 C625.545571,97.5 624.842453,98.0208281 623.800781,99.0625 C623.123695,99.0625 620.936216,99.895825 617.238281,101.5625 L617.238281,101.875 L617.472656,101.875 C619.243498,101.197913 620.38932,100.677085 620.910156,100.3125 L621.144531,100.9375 C619.738274,101.770837 616.352891,103.359363 610.988281,105.703125 L610.988281,106.015625 L611.222656,106.015625 L612.550781,105.703125 L612.550781,106.328125 C611.769527,106.328125 609.920588,107.265616 607.003906,109.140625 C604.347643,109.765628 599.451859,111.848941 592.316406,115.390625 L592.316406,117.265625 L592.863281,118.203125 C590.51952,121.223973 586.769557,127.291621 581.613281,136.40625 C579.842439,138.489594 577.056009,142.890591 573.253906,149.609375 C572.993488,149.609375 570.44143,153.385379 565.597656,160.9375 L565.910156,160.9375 C569.087255,159.270825 572.394514,158.020837 575.832031,157.1875 L575.832031,157.5 L575.597656,158.125 L575.832031,158.125 C576.613285,157.812498 577.316403,157.395836 577.941406,156.875 C578.097657,156.875 578.175781,156.979166 578.175781,157.1875 C581.144546,155.416658 583.852852,154.453126 586.300781,154.296875 L587.863281,154.609375 C589.061204,153.828121 590.805978,153.307293 593.097656,153.046875 C593.097656,153.463544 593.462236,153.671875 594.191406,153.671875 L594.191406,154.296875 C593.566403,154.296875 592.602871,155.260407 591.300781,157.1875 C584.738248,159.739596 581.326824,161.30208 581.066406,161.875 L581.378906,161.875 C581.483073,161.875 584.087214,160.833344 589.191406,158.75 C589.660159,159.166669 590.102862,159.375 590.519531,159.375 L590.519531,160 L582.394531,164.375 L581.613281,165.3125 L580.050781,165 L580.285156,165.625 C579.712237,165.625 578.930995,166.041663 577.941406,166.875 L577.707031,166.875 L577.707031,167.1875 C578.540369,167.1875 578.957031,167.708328 578.957031,168.75 L578.722656,168.75 L577.941406,168.125 L577.707031,168.125 L577.707031,168.75 L578.488281,168.75 C578.488281,169.166669 578.305991,169.375 577.941406,169.375 L577.394531,169.375 L577.394531,168.75 L576.925781,168.75 L577.160156,169.375 L577.160156,169.6875 C576.743487,169.6875 576.378908,169.583334 576.066406,169.375 C575.805988,169.375 575.28516,169.895828 574.503906,170.9375 L574.269531,170.9375 L573.722656,170.625 C572.837235,172.083341 571.977869,172.8125 571.144531,172.8125 L571.144531,173.125 L571.378906,173.125 L573.253906,172.5 L573.253906,173.125 C572.785154,173.125 568.410198,175.442685 560.128906,180.078125 L560.128906,180.390625 L560.363281,180.390625 C561.50912,179.973956 562.134114,179.765625 562.238281,179.765625 L562.238281,180.390625 C561.509111,180.390625 558.175811,182.369772 552.238281,186.328125 C552.029947,186.848961 550.207048,187.786452 546.769531,189.140625 C546.769531,189.453127 545.805999,190.520824 543.878906,192.34375 C543.878906,192.604168 543.618492,192.916665 543.097656,193.28125 L542.863281,193.28125 L543.332031,192.03125 L543.097656,192.03125 C540.910145,195.156266 539.503909,196.71875 538.878906,196.71875 C537.420566,198.02084 535.493502,199.166662 533.097656,200.15625 C531.535148,199.687498 530.753906,199.16667 530.753906,198.59375 L529.738281,198.59375 C527.915355,198.59375 526.170581,196.9271 524.503906,193.59375 C523.98307,192.812496 522.915373,191.95313 521.300781,191.015625 C521.300781,189.661452 520.701829,188.203133 519.503906,186.640625 L519.503906,185.390625 L520.832031,183.515625 L522.628906,183.828125 L525.285156,183.828125 C532.316441,179.869772 535.884114,177.682294 535.988281,177.265625 C535.988281,176.380204 538.618463,172.500034 543.878906,165.625 L544.113281,165.625 C544.321616,165.625 544.425781,165.729166 544.425781,165.9375 C545.102868,165.624998 545.441406,165.312502 545.441406,165 L545.441406,164.6875 L544.660156,165.3125 L544.425781,165.3125 L544.425781,165 C545.207035,162.916656 546.430981,161.875 548.097656,161.875 L548.097656,161.5625 C547.733071,161.5625 547.550781,161.354169 547.550781,160.9375 C549.529958,159.843745 551.79556,156.901066 554.347656,152.109375 C554.503907,152.109375 556.352847,149.6094 559.894531,144.609375 L559.582031,143.984375 C559.790366,143.567706 559.894531,143.255209 559.894531,143.046875 L558.566406,144.296875 L558.253906,144.296875 C558.774742,143.255203 559.321612,142.734375 559.894531,142.734375 C560.207033,142.942709 560.467447,143.046875 560.675781,143.046875 C563.957048,138.307268 565.597656,135.781252 565.597656,135.46875 C565.285155,135.46875 565.128906,135.260419 565.128906,134.84375 L565.363281,134.84375 L565.910156,135.15625 C565.96224,134.739581 566.118488,134.53125 566.378906,134.53125 L566.144531,133.90625 L566.144531,133.28125 C566.821618,133.28125 567.160156,133.177084 567.160156,132.96875 L566.925781,132.34375 C567.082032,131.718747 567.264322,131.40625 567.472656,131.40625 L568.253906,131.40625 C569.399745,129.322906 570.180987,128.28125 570.597656,128.28125 L570.597656,127.96875 L570.363281,127.96875 C566.977848,129.843759 562.082063,132.239569 555.675781,135.15625 C552.134097,137.239594 549.764329,138.28125 548.566406,138.28125 L547.550781,138.28125 C546.300775,137.656247 545.259119,136.510425 544.425781,134.84375 C544.425781,133.906245 543.09767,132.13543 540.441406,129.53125 C540.441406,128.80208 540.024744,127.656258 539.191406,126.09375 C539.295573,125.260413 540.233064,124.322922 542.003906,123.28125 L542.003906,122.65625 L542.316406,122.65625 L543.097656,123.28125 C544.191412,121.97916 546.977842,120.390634 551.457031,118.515625 C552.863288,117.682288 555.571595,116.4323 559.582031,114.765625 C560.779954,113.932288 564.97262,111.744809 572.160156,108.203125 C578.201853,104.817691 589.920486,99.2708719 607.316406,91.5625 C609.39975,90.5208281 612.524719,89.4791719 616.691406,88.4375 L618.800781,87.1875 Z M617.785156,95.3125 L618.566406,95.3125 L618.566406,94.6875 L618.253906,94.6875 C617.941405,94.7395836 617.785156,94.9479148 617.785156,95.3125 L617.785156,95.3125 Z M622.707031,96.5625 L622.707031,96.875 C623.279951,96.875 623.566406,97.0833313 623.566406,97.5 C623.878908,97.2916656 624.139322,97.1875 624.347656,97.1875 C624.347656,96.7708313 624.165366,96.5625 623.800781,96.5625 L622.707031,96.5625 Z M620.910156,96.875 C620.910156,97.2916687 620.571618,97.5 619.894531,97.5 L619.894531,97.8125 L621.144531,98.125 L621.144531,97.5 L621.691406,97.5 L623.019531,97.8125 C622.915364,97.1874969 622.212246,96.875 620.910156,96.875 L620.910156,96.875 Z M618.019531,98.75 L618.019531,99.375 L619.035156,99.375 L619.035156,98.75 L618.019531,98.75 Z M617.003906,99.0625 C617.05599,99.4791687 617.212238,99.6875 617.472656,99.6875 L617.785156,99.6875 L617.785156,99.0625 L617.003906,99.0625 Z M613.566406,100.625 L613.566406,100.9375 L614.113281,100.9375 C615.050786,100.312497 615.832028,100 616.457031,100 L616.457031,99.375 L616.222656,99.375 C615.076817,100.208337 614.191409,100.625 613.566406,100.625 L613.566406,100.625 Z M607.785156,109.453125 L607.785156,110.078125 L606.769531,110.390625 L606.769531,109.765625 L607.785156,109.453125 Z M545.441406,164.375 L545.675781,164.375 C546.040366,164.375 546.222656,164.166669 546.222656,163.75 L545.988281,163.75 C545.623696,163.802084 545.441406,164.010415 545.441406,164.375 L545.441406,164.375 Z M580.519531,165.9375 L581.066406,165.9375 C581.430991,165.989584 581.613281,166.197915 581.613281,166.5625 L581.613281,166.875 L580.285156,167.1875 C579.972655,166.979166 579.712241,166.875 579.503906,166.875 L579.503906,166.25 L580.519531,166.25 L580.519531,165.9375 Z M582.394531,165.9375 L582.628906,165.9375 C582.993491,165.989584 583.175781,166.197915 583.175781,166.5625 L582.394531,166.5625 L582.394531,165.9375 Z M575.050781,167.5 L575.285156,168.125 C573.566398,168.229167 572.707031,168.541664 572.707031,169.0625 C572.707031,169.479169 572.967445,169.6875 573.488281,169.6875 C574.425786,169.062497 575.649732,168.437503 577.160156,167.8125 L577.160156,167.1875 L576.925781,167.1875 L575.050781,167.5 Z M578.722656,166.875 L579.269531,166.875 C579.529949,166.875 579.790363,167.187497 580.050781,167.8125 L580.050781,168.125 L579.738281,168.125 C579.321612,167.708331 578.983074,167.5 578.722656,167.5 L578.722656,166.875 Z M570.597656,170.625 L570.050781,170.3125 L569.582031,170.3125 C569.582031,170.677085 569.035162,171.093748 567.941406,171.5625 L567.472656,172.5 L567.472656,172.8125 L567.707031,172.8125 C568.69662,171.979163 569.399738,171.5625 569.816406,171.5625 L569.816406,171.875 L572.394531,170 C572.23828,169.583331 572.160156,169.270834 572.160156,169.0625 L571.925781,169.0625 C571.144527,169.583336 570.701823,170.104164 570.597656,170.625 L570.597656,170.625 Z M536.535156,176.953125 L537.316406,176.953125 C537.576824,176.953125 537.915363,176.536462 538.332031,175.703125 L538.097656,175.703125 C537.055984,176.171877 536.535156,176.58854 536.535156,176.953125 L536.535156,176.953125 Z M553.019531,186.640625 L553.800781,186.640625 C553.800781,187.057294 553.644533,187.265625 553.332031,187.265625 L553.019531,187.265625 L553.019531,186.640625 Z M678.722656,87.96875 C680.962251,88.229168 682.082031,88.9583273 682.082031,90.15625 C682.811202,90.3645844 683.175781,90.8854125 683.175781,91.71875 C683.175781,92.1875023 682.863284,92.421875 682.238281,92.421875 L682.238281,92.8125 C683.488288,92.552082 684.243488,92.421875 684.503906,92.421875 C684.920575,92.9427109 685.128906,93.4374977 685.128906,93.90625 L685.128906,94.140625 C684.764321,95.0260461 684.165369,95.46875 683.332031,95.46875 C682.602861,95.6250008 682.186198,95.703125 682.082031,95.703125 C681.821613,95.5468742 681.509116,95.46875 681.144531,95.46875 C680.207027,96.0937531 679.477867,96.40625 678.957031,96.40625 L678.957031,96.796875 L679.425781,96.796875 L679.816406,96.5625 L680.050781,97.03125 L679.582031,97.03125 L679.582031,97.265625 L679.816406,97.265625 C680.076824,97.1093742 680.389321,97.03125 680.753906,97.03125 L680.753906,97.5 C679.660151,97.6041672 677.576838,98.2552023 674.503906,99.453125 L674.347656,99.453125 L673.644531,98.984375 L673.175781,98.984375 L673.410156,99.453125 L673.410156,99.6875 L672.316406,99.453125 L672.550781,99.921875 L672.550781,100.15625 C670.779939,100.677086 667.681012,101.927073 663.253906,103.90625 C662.993488,104.062501 662.707033,104.140625 662.394531,104.140625 C662.394531,103.984374 662.316407,103.90625 662.160156,103.90625 C662.160156,104.47917 661.561204,104.843749 660.363281,105 C660.363281,104.583331 660.753902,104.348959 661.535156,104.296875 L661.535156,104.140625 L661.066406,104.140625 C658.722645,105.130213 657.550781,105.781248 657.550781,106.09375 C657.550781,106.66667 654.972682,108.15103 649.816406,110.546875 C647.316394,112.005216 642.368527,114.427066 634.972656,117.8125 C629.139294,120.833348 626.118491,122.447916 625.910156,122.65625 C623.983063,130.05212 621.925792,135.807271 619.738281,139.921875 C619.42578,139.973959 619.269531,140.104166 619.269531,140.3125 L619.269531,140.546875 L619.503906,140.546875 C622.733089,138.619782 625.910141,137.005215 629.035156,135.703125 C629.035156,135.546874 629.11328,135.46875 629.269531,135.46875 L629.894531,135.46875 C629.894531,135.260416 630.623691,134.817712 632.082031,134.140625 L633.253906,134.375 C633.670575,134.218749 633.878906,134.062501 633.878906,133.90625 C633.722655,133.645832 633.644531,133.437501 633.644531,133.28125 C634.946621,132.70833 636.430981,131.979171 638.097656,131.09375 L638.722656,131.09375 L638.488281,131.484375 L638.957031,131.484375 C643.27997,129.296864 646.743477,128.125001 649.347656,127.96875 C649.39974,128.281252 649.555988,128.4375 649.816406,128.4375 L650.441406,128.4375 L650.910156,128.203125 L651.300781,128.828125 L651.300781,129.0625 L650.910156,129.765625 L651.300781,129.765625 L651.300781,129.921875 L651.144531,130.390625 L651.300781,130.390625 C651.561199,130.234374 651.873696,130.15625 652.238281,130.15625 L653.097656,131.25 L653.097656,131.484375 C653.097656,131.640626 652.003917,132.317702 649.816406,133.515625 L650.207031,133.515625 L653.957031,132.1875 C654.269533,132.239584 654.425781,132.369791 654.425781,132.578125 C653.123691,134.296884 651.06642,135.781244 648.253906,137.03125 L643.566406,139.6875 L643.410156,140.078125 L643.800781,140.078125 C644.373701,139.661456 644.894529,139.453125 645.363281,139.453125 L645.597656,139.453125 L645.597656,139.921875 C644.608068,140.078126 643.644536,140.729161 642.707031,141.875 C641.300774,142.552087 639.972662,143.35937 638.722656,144.296875 C634.503885,146.171884 629.868515,148.541652 624.816406,151.40625 C620.96222,153.281259 618.904949,154.21875 618.644531,154.21875 C618.644531,154.427084 616.274763,155.468741 611.535156,157.34375 C610.389317,159.739595 608.644543,163.046854 606.300781,167.265625 C606.300781,168.35938 604.087262,172.343716 599.660156,179.21875 C599.660156,179.583335 598.25392,182.239559 595.441406,187.1875 C595.441406,187.656252 594.634123,189.192695 593.019531,191.796875 C593.019531,192.526045 591.899751,194.140613 589.660156,196.640625 L589.503906,196.640625 C589.503906,196.328123 589.555989,196.041668 589.660156,195.78125 L589.660156,195.546875 L589.503906,195.546875 C588.358067,197.890637 587.472659,199.296873 586.847656,199.765625 C586.274737,199.765625 585.311205,199.244797 583.957031,198.203125 C582.967443,197.630205 582.290366,197.34375 581.925781,197.34375 C581.665363,197.500001 581.457032,197.578125 581.300781,197.578125 L579.972656,195.15625 L584.425781,185.390625 L584.425781,185.15625 L584.191406,184.0625 C584.347657,184.0625 585.154941,182.656264 586.613281,179.84375 C587.186201,178.854162 587.55078,178.359375 587.707031,178.359375 C588.1237,178.359375 589.165356,176.796891 590.832031,173.671875 C590.832031,173.203123 592.212226,170.494816 594.972656,165.546875 C595.75391,163.932284 596.352863,163.046876 596.769531,162.890625 L596.535156,162.421875 L597.628906,160.46875 C597.628906,160.104165 597.550782,159.791668 597.394531,159.53125 C597.394531,158.906247 597.915359,158.333336 598.957031,157.8125 L598.722656,156.71875 C599.972663,156.093747 600.779946,155.052091 601.144531,153.59375 C601.613284,153.59375 602.134112,152.552094 602.707031,150.46875 C602.446613,150.46875 602.316406,150.338543 602.316406,150.078125 L602.316406,149.375 C602.316406,149.166666 602.967441,148.723962 604.269531,148.046875 C607.342463,141.484342 608.878906,138.098959 608.878906,137.890625 C609.555993,137.005204 611.040353,133.619821 613.332031,127.734375 C613.7487,127.317706 614.191404,126.302091 614.660156,124.6875 C614.816407,124.6875 614.894531,124.609376 614.894531,124.453125 C614.894531,124.08854 614.816407,123.776043 614.660156,123.515625 C614.920574,123.15104 615.128905,122.135425 615.285156,120.46875 C614.555986,119.843747 614.139323,119.53125 614.035156,119.53125 C613.722655,119.687501 613.488282,119.765625 613.332031,119.765625 L613.097656,119.375 L613.800781,118.90625 C613.800781,118.697916 613.436202,118.255212 612.707031,117.578125 C612.707031,116.223952 613.80077,115.130212 615.988281,114.296875 C617.602873,113.723955 618.410156,112.395844 618.410156,110.3125 L619.113281,109.84375 L619.972656,109.84375 C621.274746,110.312502 622.003905,110.546875 622.160156,110.546875 C626.378927,108.671866 630.285138,106.744802 633.878906,104.765625 L642.707031,101.015625 C642.707031,100.65104 642.993487,100.416667 643.566406,100.3125 C643.878908,100.468751 644.11328,100.546875 644.269531,100.546875 C644.269531,100.338541 644.555987,100.052085 645.128906,99.6875 L645.597656,99.921875 C645.701823,99.921875 646.665355,99.4791711 648.488281,98.59375 L648.488281,98.359375 L648.019531,98.359375 L648.019531,97.890625 C648.332033,97.890625 650.024724,97.2395898 653.097656,95.9375 C654.712248,95.4687477 655.519531,95.104168 655.519531,94.84375 L656.613281,95.078125 L657.707031,93.75 C658.019533,93.8541672 658.253905,93.90625 658.410156,93.90625 L665.910156,91.25 C669.816426,89.7395758 673.878885,88.7239609 678.097656,88.203125 C678.097656,88.0468742 678.305988,87.96875 678.722656,87.96875 L678.722656,87.96875 Z M676.066406,97.65625 L676.535156,97.65625 C677.31641,97.2395812 677.967445,97.03125 678.488281,97.03125 L678.488281,96.796875 L678.097656,96.796875 C676.743483,97.057293 676.066406,97.3437484 676.066406,97.65625 L676.066406,97.65625 Z M669.191406,100.15625 L669.425781,100.15625 C672.029961,99.1145781 673.514321,98.59375 673.878906,98.59375 L673.878906,98.359375 L672.785156,98.359375 C670.389311,99.4010469 669.191406,99.9999992 669.191406,100.15625 L669.191406,100.15625 Z M640.285156,129.921875 L640.519531,130.390625 L640.050781,130.625 L639.816406,130.15625 L640.285156,129.921875 Z" id="Sharif" fill="#FD2187"></path>
                </g>
            </g>
        </g>
    </g>
</svg>